<svg width="100" height="22" viewBox="0 0 100 22" fill="none" xmlns="http://www.w3.org/2000/svg">
<g clip-path="url(#clip0_606_1445)">
<path d="M23.1454 13.7546L22.8538 13.397C22.4849 12.9023 22.3011 12.1462 22.3011 11.1328C22.3011 12.1462 22.1076 12.9164 21.7193 13.4422C21.331 13.968 20.788 14.2817 20.0874 14.3807C20.5918 14.44 21.0201 14.6181 21.3697 14.9163C21.5079 15.0237 21.6903 15.2442 21.6903 15.2442C21.8838 15.5226 22.0358 15.8548 22.1422 16.242C22.2486 16.6293 22.3025 17.0801 22.3025 17.5974C22.3025 16.5841 22.4904 15.8138 22.8704 15.288C23.249 14.7623 23.7879 14.4598 24.4871 14.3792C23.9634 14.3185 23.5157 14.1107 23.1468 13.7531L23.1454 13.7546Z" fill="white"/>
<path d="M3.27066 21.2792C2.11407 20.8198 1.09843 20.1542 0.22235 19.2807C0.117331 19.1959 0.0510032 19.0843 0.0192212 18.9443C-0.0125608 18.8058 -0.00150622 18.673 0.0510032 18.5444C0.103513 18.4158 0.191949 18.2886 0.316314 18.1599C0.462787 18.0101 0.628607 17.9098 0.816535 17.8561C1.00308 17.8024 1.18134 17.808 1.34716 17.8716C1.51298 17.9352 1.62767 18.0525 1.69123 18.2235C2.06709 18.9486 2.52447 19.562 3.06753 20.0623C3.60921 20.5626 4.21859 20.9357 4.89569 21.1817C5.57278 21.4262 6.30791 21.5491 7.0997 21.5491C8.22451 21.5491 9.18487 21.3795 9.97666 21.0375C10.7698 20.6969 11.3682 20.2121 11.7744 19.5818C12.1807 18.9528 12.3631 18.2221 12.3216 17.3911C12.3009 16.7947 12.0453 16.1926 11.5547 15.5848C11.0655 14.9771 10.4437 14.3863 9.69477 13.8097C8.94444 13.2345 7.92327 12.5306 6.63126 11.6982C5.17205 10.7385 4.01961 9.92867 3.17669 9.26723C2.3324 8.6072 1.68156 7.90336 1.22279 7.15571C0.764026 6.40947 0.523588 5.58832 0.50286 4.69368C0.50286 3.77783 0.741916 2.97223 1.22279 2.27828C1.70229 1.58575 2.37938 1.05292 3.25546 0.679799C4.13015 0.306678 5.13198 0.120117 6.25817 0.120117C7.59163 0.120117 8.81178 0.391478 9.91724 0.937026C11.0227 1.47975 11.8877 2.25426 12.5123 3.25631C12.7624 3.72554 12.6477 4.09866 12.1682 4.37567C11.8974 4.50429 11.6528 4.53679 11.4331 4.47178C11.2148 4.40818 11.0517 4.24847 10.9495 3.99125C10.6786 3.245 10.3138 2.61607 9.85506 2.10444C9.39629 1.59281 8.86429 1.20415 8.26043 0.937026C7.65519 0.671319 6.98915 0.537051 6.25955 0.537051C5.34202 0.537051 4.5447 0.712305 3.86623 1.06423C3.18913 1.41615 2.68338 1.88961 2.35036 2.48746C2.01596 3.08388 1.88054 3.76653 1.94411 4.53397C1.98556 5.17421 2.25087 5.79749 2.7428 6.40523C3.23197 7.01296 3.83721 7.58819 4.55576 8.13232C5.27569 8.67504 6.30238 9.39585 7.63585 10.2905C9.19869 11.3576 10.3663 12.1928 11.1374 12.8006C11.9085 13.4083 12.5289 14.074 12.9973 14.799C13.4672 15.5241 13.7117 16.3339 13.7325 17.23C13.7532 18.2108 13.5031 19.0518 12.9821 19.7556C12.4612 20.4594 11.6943 21.0022 10.6842 21.3866C9.67266 21.771 8.48014 21.9618 7.10384 21.9618C5.72755 21.9618 4.43001 21.7329 3.27342 21.2735L3.26928 21.2792H3.27066Z" fill="white"/>
<path d="M28.4418 18.2885C27.8062 19.4389 26.9522 20.3463 25.8771 21.0078C24.8021 21.6692 23.6095 21.9999 22.2968 21.9999C20.9841 21.9999 19.7225 21.6748 18.6377 21.0247C17.553 20.3746 16.7032 19.4743 16.0896 18.3224C15.4747 17.172 15.168 15.8802 15.168 14.4527C15.168 13.0252 15.4803 11.8098 16.1062 10.6791C16.7322 9.54842 17.5862 8.66367 18.6709 8.02484C19.7556 7.38601 20.9647 7.06519 22.2982 7.06519C23.6317 7.06519 24.867 7.3846 25.9421 8.02484C27.0157 8.66508 27.86 9.54842 28.475 10.6791C29.0899 11.8098 29.3966 13.0676 29.3966 14.4527C29.3966 15.8378 29.0788 17.1394 28.4432 18.2899L28.4418 18.2885ZM27.0351 10.901C26.5653 9.83532 25.913 8.99863 25.0812 8.3909C24.2479 7.78316 23.318 7.47929 22.2982 7.47929C21.2784 7.47929 20.3167 7.78316 19.4848 8.3909C18.6516 8.99863 17.9993 9.83674 17.5309 10.901C17.0611 11.9681 16.8275 13.151 16.8275 14.4513C16.8483 15.7954 17.0984 17.0094 17.5779 18.0977C18.0574 19.186 18.7082 20.0382 19.5318 20.6558C20.354 21.2749 21.2784 21.583 22.2982 21.583C23.318 21.583 24.2424 21.2735 25.0646 20.6558C25.8868 20.0382 26.539 19.1845 27.0185 18.0977C27.498 17.0094 27.7384 15.7954 27.7384 14.4513C27.7384 13.1072 27.5049 11.9681 27.0351 10.901Z" fill="white"/>
<path d="M33.7577 20.7802C32.9341 19.9676 32.5334 18.8821 32.5541 17.5197V12.0868C32.5541 10.6155 32.3206 9.5018 31.8508 8.74425C31.381 7.9867 30.679 7.60793 29.7407 7.60793V7.17969C31.1792 7.17969 32.2681 7.59662 33.0087 8.43049C33.7494 9.26436 34.1197 10.4841 34.1197 12.0868V17.3896C34.1197 18.6857 34.385 19.7061 34.9184 20.4523C35.449 21.2 36.1952 21.5731 37.1542 21.5731C37.8838 21.5957 38.572 21.4247 39.2187 21.0629C39.864 20.7011 40.4167 20.1909 40.8769 19.5322L40.9086 7.18251H43.3158C43.0449 7.51182 42.8321 7.87364 42.6746 8.26937C42.5171 8.6651 42.43 9.06084 42.4093 9.45375V19.7287C42.43 20.1244 42.5199 20.5202 42.6746 20.9145C42.8321 21.3102 43.0449 21.672 43.3158 22.0013H40.8769V20.1909C40.4181 20.7619 39.8598 21.2071 39.2035 21.5251C38.5471 21.8431 37.8631 22.0028 37.1542 22.0028C35.7157 22.0028 34.584 21.5971 33.7618 20.7845L33.7577 20.7802Z" fill="white"/>
<path d="M47.7031 20.9117C47.8607 20.5159 47.9367 20.1202 47.9367 19.7259V4.94519C47.9367 3.54033 47.728 2.44358 47.3107 1.65212C46.8934 0.860648 46.3199 0.456434 45.5903 0.43382V0.0380859C46.7994 0.0380859 47.7474 0.47198 48.4355 1.33836C49.1237 2.20473 49.4677 3.40889 49.4677 4.94378V19.7245C49.4677 20.1428 49.5465 20.5428 49.7013 20.9258C49.8588 21.3102 50.0813 21.6678 50.3742 21.9971H47.0274C47.319 21.6678 47.5429 21.306 47.7004 20.9102L47.7031 20.9117Z" fill="white"/>
<path d="M59.1946 20.9273C59.3411 20.5655 59.413 20.1641 59.413 19.7259V0.395734H55.0671C54.484 0.395734 53.905 0.544135 53.3315 0.840935C52.7581 1.13774 52.3463 1.57163 52.0962 2.14121V0H68.294V2.13979C68.0231 1.5476 67.6113 1.10806 67.0586 0.822562C66.5059 0.537068 65.9366 0.394321 65.3534 0.394321H60.9758V19.7259C60.9758 20.1443 61.0587 20.5485 61.2259 20.9442C61.3917 21.34 61.6114 21.6919 61.8823 21.9986H58.5355C58.8271 21.6481 59.0454 21.2905 59.1919 20.9273H59.1946Z" fill="white"/>
<path d="M72.6108 21.7752C71.2967 22.0946 70.1567 22.0352 69.1867 21.5999C68.2166 21.1632 67.628 20.3053 67.4207 19.0262C67.2549 18.0454 67.4096 17.1239 67.8905 16.2589C68.37 15.3954 69.0471 14.6491 69.9232 14.0202C70.7979 13.3913 71.7251 12.9277 72.7062 12.628C74.0396 12.2662 74.9834 11.9087 75.5361 11.5567C76.0875 11.2048 76.3639 10.8798 76.3639 10.5815C76.3639 10.1123 76.2436 9.64874 76.0046 9.1894C75.7655 8.73007 75.4049 8.35836 74.9254 8.07004C74.4445 7.78313 73.8614 7.63756 73.1732 7.63756C72.2142 7.63756 71.4321 7.95697 70.8269 8.59721C70.2216 9.23604 69.8264 10.0996 69.6385 11.1879C69.6178 11.4013 69.5183 11.5454 69.3414 11.6203C69.1645 11.6952 68.9296 11.6896 68.6381 11.6048C68.388 11.52 68.2263 11.397 68.1544 11.2373C68.0812 11.0762 68.0867 10.8911 68.1696 10.6776C68.6284 9.58938 69.264 8.74279 70.0765 8.13505C70.8891 7.52732 71.9213 7.23476 73.1718 7.25596C74.7554 7.25596 75.9493 7.67148 76.7521 8.50252C77.555 9.33356 77.9447 10.4317 77.9239 11.797V19.5364C77.9239 20.0057 77.9972 20.4099 78.1423 20.7519C78.2887 21.0939 78.5181 21.6791 78.8304 21.9985L76.3915 21.9773V20.0156C75.1824 20.8678 73.9222 21.4558 72.6081 21.7752H72.6108ZM75.0801 12.1475C74.7678 12.3171 74.4182 12.4782 74.0327 12.628C73.6458 12.7779 73.234 12.9263 72.7974 13.0761C71.8384 13.4393 71.0355 13.9184 70.3902 14.5163C69.7435 15.1127 69.2958 15.7953 69.0457 16.5642C68.7956 17.3316 68.7541 18.0991 68.92 18.8665C69.1065 19.8474 69.5971 20.5088 70.3888 20.8494C71.182 21.1915 72.1189 21.2282 73.2022 20.9625C74.287 20.6968 75.3482 20.1993 76.3915 19.4757V11.2557C76.1828 11.5327 75.7448 11.8309 75.0774 12.1503L75.0801 12.1475Z" fill="white"/>
<path d="M81.7251 20.9117C81.8826 20.5159 81.9586 20.1202 81.9586 19.7259V4.94519C81.9586 3.54033 81.75 2.44358 81.3327 1.65212C80.9154 0.860648 80.3419 0.456434 79.6123 0.43382V0.0380859C80.8214 0.0380859 81.7693 0.47198 82.4575 1.33836C83.1456 2.20473 83.4897 3.40889 83.4897 4.94378V19.7245C83.4897 20.1428 83.5685 20.5428 83.7232 20.9258C83.8808 21.3102 84.1032 21.6678 84.3962 21.9971H81.0494C81.341 21.6678 81.5648 21.306 81.7223 20.9102L81.7251 20.9117Z" fill="white"/>
<path d="M87.5567 20.9273C87.7031 20.5654 87.775 20.1754 87.775 19.7584V4.94524C87.775 3.25489 88.1287 2.01398 88.839 1.22393C89.5479 0.432458 90.652 0.0395508 92.154 0.0395508V0.435285C91.1743 0.414085 90.4599 0.770246 90.0122 1.50659C89.5631 2.24294 89.3392 3.38916 89.3392 4.94807V18.8412L96.4999 11.0692C97.2295 10.2778 97.5943 9.52163 97.5943 8.79659C97.5943 8.07154 97.2391 7.27159 96.5303 6.3925C96.3838 6.21725 96.3216 6.03069 96.3437 5.83282C96.3644 5.63636 96.4695 5.44839 96.656 5.27314C96.884 5.07668 97.1051 5.0046 97.3124 5.05972C97.5196 5.11484 97.7186 5.29575 97.9066 5.60244C98.3446 6.28367 98.5795 6.93663 98.6099 7.56133C98.6417 8.18744 98.4994 8.79659 98.1871 9.38877C97.8748 9.98096 97.3939 10.6396 96.7486 11.3646L94.0899 14.2295L98.0931 20.1909C98.3432 20.5428 98.6237 20.8665 98.9374 21.1619C99.2497 21.4587 99.6048 21.7385 100.001 22.0014H96.7182C96.7596 21.7385 96.7596 21.4912 96.7182 21.2594C96.6753 21.029 96.5717 20.793 96.4059 20.5513L92.9983 15.4477L89.3392 19.3994V19.7613C89.3392 20.5739 89.6308 21.3202 90.2139 22H86.8989C87.1905 21.6495 87.4088 21.2919 87.5553 20.9287L87.5567 20.9273Z" fill="white"/>
<path d="M28.9254 7.34489L15.2891 21.2922L15.5148 21.5231L29.1512 7.57575L28.9254 7.34489Z" fill="white"/>
</g>
<defs>
<clipPath id="clip0_606_1445">
<rect width="100" height="22" fill="white"/>
</clipPath>
</defs>
</svg>
