<svg width="137" height="155" viewBox="0 0 137 155" fill="none" xmlns="http://www.w3.org/2000/svg">
<rect width="137" height="155" rx="10" fill="white"/>
<path d="M69.3483 90.1202C70.2571 90.1202 70.9939 88.6701 70.9939 86.8812C70.9939 85.0923 70.2571 83.6421 69.3483 83.6421C68.4394 83.6421 67.7026 85.0923 67.7026 86.8812C67.7026 88.6701 68.4394 90.1202 69.3483 90.1202Z" fill="#59168B"/>
<path d="M63.9694 90.1202C64.8782 90.1202 65.615 88.6701 65.615 86.8812C65.615 85.0923 64.8782 83.6421 63.9694 83.6421C63.0605 83.6421 62.3237 85.0923 62.3237 86.8812C62.3237 88.6701 63.0605 90.1202 63.9694 90.1202Z" fill="#59168B"/>
<path d="M108.76 69.34C108.49 68.6767 108.048 68.0148 107.48 67.5706C106.658 66.9282 105.715 66.6614 104.746 66.4497H99.6092V56.8115C99.6092 48.4522 96.3344 39.8231 90.6254 33.1393C90.1499 32.5818 89.6595 32.0526 89.1631 31.5339C89.1139 31.4832 89.0677 31.4266 89.0185 31.3744C89.0215 31.3803 89.023 31.3878 89.0259 31.3938C83.1336 25.324 75.8073 22 68.1605 22H64.7635C56.4086 22 48.4324 25.9561 42.2971 33.1393C37.3692 38.9064 34.2628 46.1224 33.5026 53.3637C33.5026 53.3593 33.5026 53.3563 33.5026 53.3533C33.4996 53.3757 33.4996 53.3995 33.4966 53.4219C33.4489 53.8854 33.4131 54.349 33.3848 54.8126C33.3774 54.9199 33.3669 55.0272 33.361 55.1361C33.3326 55.695 33.3148 56.254 33.3148 56.813V66.4512H27.9143C26.8858 66.6137 25.8901 66.9476 25.1507 67.6407C24.5143 68.2384 24.1386 68.9226 24.0343 69.7857C24.0179 69.9154 24.0164 70.0793 24 70.2403V86.6906C24 149.739 109 151.319 109 86.6906V70.1613C108.936 69.8841 108.866 69.6098 108.76 69.3445V69.34ZM76.5273 107.899C76.5273 107.899 76.3991 109.146 75.7894 109.562C75.3273 109.878 74.8876 109.96 74.3734 109.878C73.6907 112.116 72.5325 113.857 71.7335 114.873C70.0491 117.018 67.9668 118.516 66.6699 118.516C65.3731 118.516 63.2922 117.018 61.6078 114.873C60.8089 113.857 59.6507 112.113 58.968 109.874C58.4433 109.963 57.9946 109.884 57.5236 109.562C56.9154 109.146 56.7858 107.899 56.7858 107.899C56.5637 105.992 57.0108 104.582 57.8605 102.47C58.9993 99.6394 60.4586 97.7031 61.4886 96.5703C61.903 96.0724 62.3517 95.6312 62.8316 95.2571C60.1247 93.6815 58.4045 90.5572 58.4045 87.1303C58.4045 82.0712 62.1132 77.9542 66.6699 77.9542C71.2267 77.9542 74.9368 82.0712 74.9368 87.1303C74.9368 90.5572 73.2166 93.6815 70.5097 95.2571C71.103 95.7191 71.6485 96.2826 72.1389 96.9295C73.1362 98.0952 74.4225 99.9196 75.4496 102.47C76.2992 104.582 76.7449 105.992 76.5243 107.899H76.5273ZM87.7038 63.9485V66.4497H45.2202V63.4134C45.2202 50.7835 53.8582 36.1026 64.996 36.1026H67.928C79.0673 36.1026 87.7053 50.7835 87.7053 63.4134V63.9485H87.7038Z" fill="#59168B"/>
</svg>
