<svg width="34" height="82" viewBox="0 0 34 82" fill="none" xmlns="http://www.w3.org/2000/svg">
<g clip-path="url(#clip0_619_1954)">
<path d="M33.0242 57.0756C33.0242 70.4487 21.3813 81.2947 16.8716 81.2947C12.3618 81.2947 0.715332 70.4487 0.715332 57.0756C0.715332 43.7024 7.94607 32.8564 16.868 32.8564C25.7898 32.8564 33.0206 43.6989 33.0206 57.0756H33.0242Z" fill="#00B1FF"/>
<path d="M33.0242 57.0756C33.0242 70.4487 21.3813 81.2947 16.8716 81.2947C12.3618 81.2947 0.715332 70.4487 0.715332 57.0756C0.715332 43.7024 7.94607 32.8564 16.868 32.8564C25.7898 32.8564 33.0206 43.6989 33.0206 57.0756H33.0242Z" fill="#70CACF"/>
<mask id="mask0_619_1954" style="mask-type:luminance" maskUnits="userSpaceOnUse" x="0" y="32" width="34" height="50">
<path d="M33.0242 57.0756C33.0242 70.4487 21.3813 81.2947 16.8716 81.2947C12.3618 81.2947 0.715332 70.4487 0.715332 57.0756C0.715332 43.7024 7.94607 32.8564 16.868 32.8564C25.7898 32.8564 33.0206 43.6989 33.0206 57.0756H33.0242Z" fill="white"/>
</mask>
<g mask="url(#mask0_619_1954)">
<path d="M16.8717 81.5094C30.4945 81.5094 41.5379 70.57 41.5379 57.0755C41.5379 43.581 30.4945 32.6416 16.8717 32.6416C3.24899 32.6416 -7.79443 43.581 -7.79443 57.0755C-7.79443 70.57 3.24899 81.5094 16.8717 81.5094Z" fill="#70CACF"/>
<path d="M16.8718 70.9141C27.481 70.9141 36.0815 62.3946 36.0815 51.8853C36.0815 41.3759 27.481 32.8564 16.8718 32.8564C6.26258 32.8564 -2.33789 41.3759 -2.33789 51.8853C-2.33789 62.3946 6.26258 70.9141 16.8718 70.9141Z" fill="#70CACF"/>
<path d="M16.8718 62.1904C27.481 62.1904 36.0815 53.6709 36.0815 43.1616C36.0815 32.6523 27.481 24.1328 16.8718 24.1328C6.26258 24.1328 -2.33789 32.6523 -2.33789 43.1616C-2.33789 53.6709 6.26258 62.1904 16.8718 62.1904Z" fill="#70CACF"/>
<path d="M16.8718 50.5894C27.481 50.5894 36.0815 42.0699 36.0815 31.5605C36.0815 21.0512 27.481 12.5317 16.8718 12.5317C6.26258 12.5317 -2.33789 21.0512 -2.33789 31.5605C-2.33789 42.0699 6.26258 50.5894 16.8718 50.5894Z" fill="#70CACF"/>
</g>
<path d="M16.8719 36.3898C25.7927 36.3898 33.0245 28.4024 33.0245 18.5494C33.0245 8.69641 25.7927 0.708984 16.8719 0.708984C7.95101 0.708984 0.719238 8.69641 0.719238 18.5494C0.719238 28.4024 7.95101 36.3898 16.8719 36.3898Z" fill="#70CACF"/>
<mask id="mask1_619_1954" style="mask-type:luminance" maskUnits="userSpaceOnUse" x="0" y="0" width="34" height="37">
<path d="M16.8719 36.3898C25.7927 36.3898 33.0245 28.4024 33.0245 18.5494C33.0245 8.69641 25.7927 0.708984 16.8719 0.708984C7.95101 0.708984 0.719238 8.69641 0.719238 18.5494C0.719238 28.4024 7.95101 36.3898 16.8719 36.3898Z" fill="white"/>
</mask>
<g mask="url(#mask1_619_1954)">
<path d="M16.872 39.4219C28.036 39.4219 37.0862 30.4569 37.0862 19.3979C37.0862 8.33904 28.036 -0.625977 16.872 -0.625977C5.70795 -0.625977 -3.34229 8.33904 -3.34229 19.3979C-3.34229 30.4569 5.70795 39.4219 16.872 39.4219Z" fill="#70CACF"/>
<path d="M16.872 34.5966C25.3458 34.5966 32.2152 27.7919 32.2152 19.3979C32.2152 11.0039 25.3458 4.19922 16.872 4.19922C8.39819 4.19922 1.52881 11.0039 1.52881 19.3979C1.52881 27.7919 8.39819 34.5966 16.872 34.5966Z" fill="#70CACF"/>
<path d="M16.872 45.2636C25.3458 45.2636 32.2152 38.4589 32.2152 30.0649C32.2152 21.6709 25.3458 14.8662 16.872 14.8662C8.39819 14.8662 1.52881 21.6709 1.52881 30.0649C1.52881 38.4589 8.39819 45.2636 16.872 45.2636Z" fill="#70CACF"/>
<path d="M16.8718 36.3866C20.3962 36.3866 23.2533 33.5564 23.2533 30.0651C23.2533 26.5739 20.3962 23.7437 16.8718 23.7437C13.3474 23.7437 10.4902 26.5739 10.4902 30.0651C10.4902 33.5564 13.3474 36.3866 16.8718 36.3866Z" fill="#70CACF"/>
</g>
<path d="M16.8681 0.708748C25.79 0.708748 33.0243 8.69469 33.0243 18.5492C33.0243 25.855 29.0494 32.1299 23.3581 34.8897C29.0494 38.6339 33.0243 47.1568 33.0243 57.0721C33.0243 70.4488 21.3814 81.2877 16.8681 81.2877C12.3548 81.2877 0.715485 70.4488 0.715485 57.0721C0.715485 47.1568 4.6904 38.6339 10.3818 34.8897C4.6904 32.1335 0.715485 25.855 0.715485 18.5492C0.715485 8.69827 7.94984 0.708748 16.8681 0.708748ZM16.8681 0C7.5668 0 0 8.32242 0 18.5492C0 25.4756 3.50877 31.7934 9.0339 34.9792C3.51238 39.246 0 47.7546 0 57.0721C0 65.1798 4.09778 71.5549 6.53693 74.6333C9.97343 78.9681 14.223 81.9964 16.8681 81.9964C19.5132 81.9964 23.7628 78.9681 27.2029 74.6333C29.6457 71.5549 33.7398 65.1762 33.7398 57.0721C33.7398 47.751 30.2274 39.246 24.7059 34.9792C30.2311 31.7934 33.7398 25.4756 33.7398 18.5492C33.7398 8.32242 26.173 0 16.8681 0Z" fill="white"/>
<path d="M13.8762 41.1467C12.5681 43.0224 11.6755 44.4757 10.8047 47.0494C9.9627 49.5443 9.48571 51.3806 9.25445 53.2169C8.31853 60.734 9.7748 63.5689 9.99884 64.0593C10.3204 64.7574 11.5924 65.6701 12.8463 65.7023C14.1002 65.7346 15.524 64.1596 15.524 64.1596C17.7319 61.7756 18.5268 59.4095 19.4628 55.6832C21.6381 47.0458 19.8205 41.1002 19.8205 41.1002C19.8205 41.1002 19.5133 39.2925 17.1392 39.2317C17.1392 39.2317 15.9395 39.1995 15.383 39.5646C14.9458 39.8509 13.869 41.1432 13.869 41.1432L13.8762 41.1467Z" fill="#70CACF"/>
<mask id="mask2_619_1954" style="mask-type:luminance" maskUnits="userSpaceOnUse" x="8" y="39" width="13" height="27">
<path d="M13.8762 41.1467C12.5681 43.0224 11.6755 44.4757 10.8047 47.0494C9.9627 49.5443 9.48571 51.3806 9.25445 53.2169C8.31853 60.734 9.7748 63.5689 9.99884 64.0593C10.3204 64.7574 11.5924 65.6701 12.8463 65.7023C14.1002 65.7346 15.524 64.1596 15.524 64.1596C17.7319 61.7756 18.5268 59.4095 19.4628 55.6832C21.6381 47.0458 19.8205 41.1002 19.8205 41.1002C19.8205 41.1002 19.5133 39.2925 17.1392 39.2317C17.1392 39.2317 15.9395 39.1995 15.383 39.5646C14.9458 39.8509 13.869 41.1432 13.869 41.1432L13.8762 41.1467Z" fill="white"/>
</mask>
<g mask="url(#mask2_619_1954)">
<path d="M25.8044 82.2648C39.4271 82.2648 50.4705 71.3254 50.4705 57.8309C50.4705 44.3364 39.4271 33.397 25.8044 33.397C12.1816 33.397 1.13818 44.3364 1.13818 57.8309C1.13818 71.3254 12.1816 82.2648 25.8044 82.2648Z" fill="#70CACF"/>
<path d="M25.945 71.6729C36.5543 71.6729 45.1547 63.1534 45.1547 52.644C45.1547 42.1347 36.5543 33.6152 25.945 33.6152C15.3358 33.6152 6.73535 42.1347 6.73535 52.644C6.73535 63.1534 15.3358 71.6729 25.945 71.6729Z" fill="#70CACF"/>
<path d="M26.1804 62.9531C36.7896 62.9531 45.3901 54.4336 45.3901 43.9243C45.3901 33.415 36.7896 24.8955 26.1804 24.8955C15.5712 24.8955 6.9707 33.415 6.9707 43.9243C6.9707 54.4336 15.5712 62.9531 26.1804 62.9531Z" fill="#70CACF"/>
<path d="M26.4909 51.3555C37.1002 51.3555 45.7006 42.836 45.7006 32.3267C45.7006 21.8173 37.1002 13.2979 26.4909 13.2979C15.8817 13.2979 7.28125 21.8173 7.28125 32.3267C7.28125 42.836 15.8817 51.3555 26.4909 51.3555Z" fill="#70CACF"/>
<path d="M25.8044 82.2648C39.4271 82.2648 50.4705 71.3254 50.4705 57.8309C50.4705 44.3364 39.4271 33.397 25.8044 33.397C12.1816 33.397 1.13818 44.3364 1.13818 57.8309C1.13818 71.3254 12.1816 82.2648 25.8044 82.2648Z" fill="#70CACF"/>
<path d="M25.945 71.6729C36.5543 71.6729 45.1547 63.1534 45.1547 52.644C45.1547 42.1347 36.5543 33.6152 25.945 33.6152C15.3358 33.6152 6.73535 42.1347 6.73535 52.644C6.73535 63.1534 15.3358 71.6729 25.945 71.6729Z" fill="#70CACF"/>
<path d="M26.1804 62.9531C36.7896 62.9531 45.3901 54.4336 45.3901 43.9243C45.3901 33.415 36.7896 24.8955 26.1804 24.8955C15.5712 24.8955 6.9707 33.415 6.9707 43.9243C6.9707 54.4336 15.5712 62.9531 26.1804 62.9531Z" fill="#70CACF"/>
<path d="M26.4909 51.3555C37.1002 51.3555 45.7006 42.836 45.7006 32.3267C45.7006 21.8173 37.1002 13.2979 26.4909 13.2979C15.8817 13.2979 7.28125 21.8173 7.28125 32.3267C7.28125 42.836 15.8817 51.3555 26.4909 51.3555Z" fill="#70CACF"/>
<path d="M25.8044 82.2648C39.4271 82.2648 50.4705 71.3254 50.4705 57.8309C50.4705 44.3364 39.4271 33.397 25.8044 33.397C12.1816 33.397 1.13818 44.3364 1.13818 57.8309C1.13818 71.3254 12.1816 82.2648 25.8044 82.2648Z" fill="#70CACF"/>
<path d="M25.945 71.6729C36.5543 71.6729 45.1547 63.1534 45.1547 52.644C45.1547 42.1347 36.5543 33.6152 25.945 33.6152C15.3358 33.6152 6.73535 42.1347 6.73535 52.644C6.73535 63.1534 15.3358 71.6729 25.945 71.6729Z" fill="#70CACF"/>
<path d="M26.1804 62.9531C36.7896 62.9531 45.3901 54.4336 45.3901 43.9243C45.3901 33.415 36.7896 24.8955 26.1804 24.8955C15.5712 24.8955 6.9707 33.415 6.9707 43.9243C6.9707 54.4336 15.5712 62.9531 26.1804 62.9531Z" fill="#70CACF"/>
<path d="M26.4909 51.3555C37.1002 51.3555 45.7006 42.836 45.7006 32.3267C45.7006 21.8173 37.1002 13.2979 26.4909 13.2979C15.8817 13.2979 7.28125 21.8173 7.28125 32.3267C7.28125 42.836 15.8817 51.3555 26.4909 51.3555Z" fill="#70CACF"/>
</g>
<path d="M19.8276 41.1074C21.0779 45.5281 20.8756 50.2531 19.9722 54.724C19.2603 58.0852 18.3425 61.6038 15.9467 64.2097C15.13 65.0975 14.1037 66.046 12.8065 66.0604C11.5381 66.0783 10.3709 65.2263 9.6952 64.2205C8.36903 62.2052 8.53886 59.6566 8.58223 57.3657C8.72677 53.9257 9.33746 50.4894 10.548 47.2678C11.296 45.1093 12.2789 42.9974 13.6918 41.1862C13.0667 42.1455 12.4993 43.137 12.0368 44.1751C10.7684 47.3143 9.74579 50.6326 9.44225 54.0045C9.2146 57.2977 8.09439 64.9686 12.8282 65.3516C13.8147 65.3445 14.7686 64.4782 15.4299 63.7623C17.7896 61.2602 18.6315 57.8489 19.4338 54.6059C20.4492 50.2066 20.7744 45.5496 19.8276 41.1074Z" fill="white"/>
<path d="M22.5177 24.5127C24.3381 24.3086 25.5004 21.4009 25.1138 18.0182C24.7271 14.6356 22.9379 12.0589 21.1175 12.2631C19.297 12.4673 18.1347 15.375 18.5214 18.7576C18.908 22.1403 20.6972 24.7169 22.5177 24.5127Z" fill="white"/>
<path d="M19.2069 24.7363C20.6604 24.5733 21.7749 23.8822 21.6961 23.1927C21.6173 22.5032 20.375 22.0764 18.9215 22.2395C17.4679 22.4025 16.3534 23.0936 16.4323 23.7831C16.5111 24.4726 17.7533 24.8994 19.2069 24.7363Z" fill="#FF9CD5"/>
<path d="M29.7137 21.5898C31.0506 21.5134 31.9985 19.1172 31.8309 16.2377C31.6633 13.3581 30.4436 11.0857 29.1067 11.162C27.7698 11.2384 26.8219 13.6346 26.9895 16.5142C27.1571 19.3937 28.3768 21.6662 29.7137 21.5898Z" fill="white"/>
<path d="M32.1294 21.328C33.1973 21.267 34.0353 20.7408 34.0011 20.1526C33.9668 19.5645 33.0734 19.1372 32.0054 19.1981C30.9375 19.2591 30.0995 19.7854 30.1338 20.3735C30.168 20.9617 31.0615 21.389 32.1294 21.328Z" fill="#FF9CD5"/>
</g>
<defs>
<clipPath id="clip0_619_1954">
<rect width="34" height="82" fill="white"/>
</clipPath>
</defs>
</svg>
