<svg width="35" height="31" viewBox="0 0 35 31" fill="none" xmlns="http://www.w3.org/2000/svg">
<path d="M22.6596 30.2666C16.226 30.0466 9.3125 26.4529 8.44616 19.7796C7.53417 12.7544 14.5694 6.92847 21.5376 9.97486C26.7336 12.2472 28.5586 19.2499 23.8171 22.9013C19.6223 26.1314 12.8276 23.9969 13.2435 18.383C13.5022 14.887 17.8775 12.5091 20.6185 15.1509C22.3613 16.83 21.6218 20.2038 18.9518 19.851C18.2711 19.761 17.6299 19.1619 17.8552 18.4573C17.9444 18.1768 18.4699 18.0741 18.2762 17.6412C18.0144 17.0606 17.0923 17.4369 16.7768 17.8357C15.8537 19.0036 17.1065 20.6729 18.3827 21.0228C22.3674 22.1164 24.6134 16.7557 21.4473 14.066C17.9363 11.0822 12.6571 13.4953 11.9561 17.7663C10.9123 24.1239 18.058 27.6834 23.534 24.7612C29.6298 21.5095 29.2788 13.3213 23.8394 9.62986C17.7131 5.4732 9.48191 8.59387 7.39925 15.3522C5.57223 21.2818 8.8986 26.9778 14.3939 29.6498L15.8881 30.2646L22.6596 30.2666Z" fill="white"/>
<path d="M31.3679 30.9999H3.63192C2.54139 30.9999 1.65375 30.1447 1.65375 29.0941V15.4875C1.65375 15.4435 1.65781 15.3985 1.66593 15.3545C1.69433 15.2031 1.70245 15.0975 1.70245 15.0271C0.953784 14.9616 0.317725 14.5003 0.0884601 13.8387C-0.146892 13.1614 0.0965756 12.4362 0.709302 11.9925L17.0399 0.151899L17.0429 0.148967L17.046 0.147012C17.3442 -0.0689816 17.753 -0.0416159 18.0178 0.193925L34.2906 11.9925C34.9023 12.4362 35.1457 13.1614 34.9114 13.8387C34.6811 14.5013 34.0461 14.9626 33.2974 15.0271C33.2974 15.0975 33.3055 15.204 33.3339 15.3545C33.342 15.3985 33.3461 15.4425 33.3461 15.4875V29.0941C33.3461 30.1447 32.4585 30.9999 31.3679 30.9999ZM3.17542 15.551V29.0931C3.17542 29.3316 3.3844 29.5329 3.63192 29.5329H31.3679C31.6155 29.5329 31.8244 29.3316 31.8244 29.0931V15.551C31.7108 14.8952 31.796 14.4026 32.0831 14.0469C32.2444 13.8475 32.5467 13.6022 33.0651 13.5699C33.0813 13.5689 33.0976 13.568 33.1138 13.568C33.3248 13.568 33.4354 13.4673 33.4678 13.3725C33.4861 13.3187 33.4922 13.2474 33.3755 13.1624L17.4994 1.6531L1.62433 13.1633C1.50767 13.2484 1.51376 13.3197 1.53202 13.3735C1.56448 13.4683 1.67506 13.5689 1.88606 13.5689C1.90229 13.5689 1.91852 13.5689 1.93475 13.5709C2.45314 13.6031 2.75443 13.8475 2.91674 14.0478C3.20383 14.4026 3.28904 14.8942 3.17542 15.551Z" fill="white"/>
</svg>
