<svg width="33" height="30" viewBox="0 0 33 30" fill="none" xmlns="http://www.w3.org/2000/svg">
<path d="M0.631836 4.32312H3.80577" stroke="#4F1786" stroke-width="1.23707" stroke-linecap="round" stroke-linejoin="round"/>
<path d="M0.631836 9.5319H3.80577" stroke="#4F1786" stroke-width="1.23707" stroke-linecap="round" stroke-linejoin="round"/>
<path d="M0.631836 14.7402H3.80577" stroke="#4F1786" stroke-width="1.23707" stroke-linecap="round" stroke-linejoin="round"/>
<path d="M0.631836 19.949H3.80577" stroke="#4F1786" stroke-width="1.23707" stroke-linecap="round" stroke-linejoin="round"/>
<path d="M0.631836 25.1568H3.80577" stroke="#4F1786" stroke-width="1.23707" stroke-linecap="round" stroke-linejoin="round"/>
<path d="M18.3348 23.1776C13.9162 23.7709 9.37385 21.746 7.86625 17.3331C5.99783 11.8673 9.93745 5.74316 15.9413 6.791C19.934 7.50395 22.6143 11.8008 20.8256 15.6544C19.2788 19.0188 14.5043 19.9031 12.3114 16.7426C10.5143 14.1528 12.5716 10.1158 15.7287 11.1438C18.081 11.9134 17.9307 15.4017 15.5993 15.3457" stroke="#4F1786" stroke-width="1.23707" stroke-linecap="round" stroke-linejoin="round"/>
<path d="M21.6873 29.3681H4.94141C3.36039 29.2442 2.46534 28.2898 2.19123 26.5835V2.9385C2.4073 1.60533 3.11915 0.786888 4.46941 0.631836H24.3962C25.6653 0.830784 26.3359 1.58268 26.5205 2.78274V11.9145" stroke="#4F1786" stroke-width="1.23707" stroke-linecap="round" stroke-linejoin="round"/>
<path d="M32.2647 10.6673C31.9976 9.07503 31.0263 8.63962 29.6418 9.51753L23.1107 24.1604L22.8289 27.8717L22.8827 27.8993L25.4819 25.2677L32.2101 10.7162C31.9675 9.07999 31.0088 8.61696 29.6404 9.44815" stroke="#4F1786" stroke-width="1.23707" stroke-linecap="round" stroke-linejoin="round"/>
</svg>
