<svg width="35" height="33" viewBox="0 0 35 33" fill="none" xmlns="http://www.w3.org/2000/svg">
<path d="M17.4464 22.1698C21.1875 22.1698 24.2203 18.8892 24.2203 14.8424C24.2203 10.7956 21.1875 7.51497 17.4464 7.51497C13.7053 7.51497 10.6725 10.7956 10.6725 14.8424C10.6725 18.8892 13.7053 22.1698 17.4464 22.1698Z" stroke="#4F1786" stroke-width="1.24" stroke-linecap="round" stroke-linejoin="round"/>
<path d="M27.8616 32.3078C27.8616 27.0601 23.204 22.5379 17.4476 22.5379C11.6912 22.5379 7.03353 27.0601 7.03353 32.3078" stroke="#4F1786" stroke-width="1.24" stroke-linecap="round" stroke-linejoin="round"/>
<path d="M30.2723 28.775C37.8906 20.9718 35.3716 1.92432 18.5358 0.633606H16.4631C-0.37156 1.92432 -2.89057 20.9718 4.72771 28.775" stroke="#4F1786" stroke-width="1.24" stroke-linecap="round" stroke-linejoin="round"/>
<path d="M28.7309 20.0469L29.0932 21.2175H30.2639L29.3166 21.9415L29.679 23.1122L28.7309 22.3881L27.7836 23.1122L28.1459 21.9415L27.1987 21.2175H28.3694L28.7309 20.0469Z" stroke="#4F1786" stroke-width="1.72888" stroke-linecap="round" stroke-linejoin="round"/>
<path d="M6.25274 10.8511L6.61414 12.0227H7.78537L6.83836 12.7458L7.19976 13.9164L6.25274 13.1933L5.30573 13.9164L5.66713 12.7458L4.72012 12.0227H5.89135L6.25274 10.8511Z" stroke="#4F1786" stroke-width="1.72888" stroke-linecap="round" stroke-linejoin="round"/>
</svg>
