<svg width="87" height="210" viewBox="0 0 87 210" fill="none" xmlns="http://www.w3.org/2000/svg">
<g clip-path="url(#clip0_619_2023)">
<path d="M84.5032 146.17C84.5032 180.418 54.7111 208.194 43.1715 208.194C31.6319 208.194 1.83057 180.418 1.83057 146.17C1.83057 111.921 20.3327 84.145 43.1623 84.145C65.9918 84.145 84.494 111.912 84.494 146.17H84.5032Z" fill="#00B1FF"/>
<path d="M84.5032 146.17C84.5032 180.418 54.7111 208.194 43.1715 208.194C31.6319 208.194 1.83057 180.418 1.83057 146.17C1.83057 111.921 20.3327 84.145 43.1623 84.145C65.9918 84.145 84.494 111.912 84.494 146.17H84.5032Z" fill="#70CACF"/>
<mask id="mask0_619_2023" style="mask-type:luminance" maskUnits="userSpaceOnUse" x="1" y="84" width="84" height="125">
<path d="M84.5032 146.17C84.5032 180.418 54.7111 208.194 43.1715 208.194C31.6319 208.194 1.83057 180.418 1.83057 146.17C1.83057 111.921 20.3327 84.145 43.1623 84.145C65.9918 84.145 84.494 111.912 84.494 146.17H84.5032Z" fill="white"/>
</mask>
<g mask="url(#mask0_619_2023)">
<path d="M43.1715 208.745C78.0298 208.745 106.288 180.729 106.288 146.17C106.288 111.611 78.0298 83.5952 43.1715 83.5952C8.31334 83.5952 -19.9448 111.611 -19.9448 146.17C-19.9448 180.729 8.31334 208.745 43.1715 208.745Z" fill="#70CACF"/>
<path d="M43.1718 181.61C70.3189 181.61 92.326 159.791 92.326 132.877C92.326 105.963 70.3189 84.145 43.1718 84.145C16.0247 84.145 -5.98242 105.963 -5.98242 132.877C-5.98242 159.791 16.0247 181.61 43.1718 181.61Z" fill="#70CACF"/>
<path d="M43.1718 159.269C70.3189 159.269 92.326 137.451 92.326 110.537C92.326 83.6229 70.3189 61.8047 43.1718 61.8047C16.0247 61.8047 -5.98242 83.6229 -5.98242 110.537C-5.98242 137.451 16.0247 159.269 43.1718 159.269Z" fill="#70CACF"/>
<path d="M43.1718 129.559C70.3189 129.559 92.326 107.741 92.326 80.8266C92.326 53.9124 70.3189 32.0942 43.1718 32.0942C16.0247 32.0942 -5.98242 53.9124 -5.98242 80.8266C-5.98242 107.741 16.0247 129.559 43.1718 129.559Z" fill="#70CACF"/>
</g>
<path d="M43.1715 93.1926C65.9984 93.1926 84.5033 72.737 84.5033 47.5038C84.5033 22.2705 65.9984 1.81494 43.1715 1.81494C20.3447 1.81494 1.83984 22.2705 1.83984 47.5038C1.83984 72.737 20.3447 93.1926 43.1715 93.1926Z" fill="#70CACF"/>
<mask id="mask1_619_2023" style="mask-type:luminance" maskUnits="userSpaceOnUse" x="1" y="1" width="84" height="93">
<path d="M43.1715 93.1926C65.9984 93.1926 84.5033 72.737 84.5033 47.5038C84.5033 22.2705 65.9984 1.81494 43.1715 1.81494C20.3447 1.81494 1.83984 22.2705 1.83984 47.5038C1.83984 72.737 20.3447 93.1926 43.1715 93.1926Z" fill="white"/>
</mask>
<g mask="url(#mask1_619_2023)">
<path d="M43.1715 100.957C71.7383 100.957 94.8962 77.9979 94.8962 49.6763C94.8962 21.3547 71.7383 -1.60449 43.1715 -1.60449C14.6047 -1.60449 -8.55322 21.3547 -8.55322 49.6763C-8.55322 77.9979 14.6047 100.957 43.1715 100.957Z" fill="#70CACF"/>
<path d="M43.1716 88.6C64.8546 88.6 82.4321 71.1733 82.4321 49.6764C82.4321 28.1796 64.8546 10.7529 43.1716 10.7529C21.4887 10.7529 3.91113 28.1796 3.91113 49.6764C3.91113 71.1733 21.4887 88.6 43.1716 88.6Z" fill="#70CACF"/>
<path d="M43.1716 115.918C64.8546 115.918 82.4321 98.4912 82.4321 76.9943C82.4321 55.4975 64.8546 38.0708 43.1716 38.0708C21.4887 38.0708 3.91113 55.4975 3.91113 76.9943C3.91113 98.4912 21.4887 115.918 43.1716 115.918Z" fill="#70CACF"/>
<path d="M43.1715 93.1834C52.1899 93.1834 59.5008 85.9353 59.5008 76.9943C59.5008 68.0533 52.1899 60.8052 43.1715 60.8052C34.1531 60.8052 26.8423 68.0533 26.8423 76.9943C26.8423 85.9353 34.1531 93.1834 43.1715 93.1834Z" fill="#70CACF"/>
</g>
<path d="M43.1625 1.81509C65.992 1.81509 84.5035 22.2669 84.5035 47.5039C84.5035 66.214 74.3323 82.2839 59.7692 89.3518C74.3323 98.9405 84.5035 120.767 84.5035 146.16C84.5035 180.418 54.7113 208.176 43.1625 208.176C31.6137 208.176 1.8308 180.418 1.8308 146.16C1.8308 120.767 12.0019 98.9405 26.5651 89.3518C12.0019 82.2931 1.8308 66.214 1.8308 47.5039C1.8308 22.2761 20.3422 1.81509 43.1625 1.81509ZM43.1625 0C19.3621 0 0 21.3135 0 47.5039C0 65.2423 8.97832 81.4222 23.1162 89.5809C8.98757 100.508 0 122.298 0 146.16C0 166.924 10.4855 183.25 16.7269 191.134C25.5202 202.235 36.3941 209.991 43.1625 209.991C49.9309 209.991 60.8048 202.235 69.6074 191.134C75.858 183.25 86.3343 166.915 86.3343 146.16C86.3343 122.289 77.3467 100.508 63.2181 89.5809C77.3559 81.4222 86.3343 65.2423 86.3343 47.5039C86.3343 21.3135 66.9722 0 43.1625 0Z" fill="white"/>
<path d="M35.5067 105.376C32.1595 110.18 29.8756 113.901 27.6472 120.493C25.4928 126.882 24.2723 131.585 23.6805 136.287C21.2857 155.538 25.012 162.799 25.5853 164.055C26.4082 165.842 29.663 168.18 32.8715 168.262C36.08 168.345 39.7231 164.311 39.7231 164.311C45.3727 158.206 47.4069 152.147 49.8018 142.604C55.3681 120.483 50.7172 105.257 50.7172 105.257C50.7172 105.257 49.9312 100.627 43.8563 100.472C43.8563 100.472 40.7865 100.389 39.3625 101.324C38.2437 102.057 35.4882 105.367 35.4882 105.367L35.5067 105.376Z" fill="#70CACF"/>
<mask id="mask2_619_2023" style="mask-type:luminance" maskUnits="userSpaceOnUse" x="22" y="100" width="31" height="69">
<path d="M35.5067 105.376C32.1595 110.18 29.8756 113.901 27.6472 120.493C25.4928 126.882 24.2723 131.585 23.6805 136.287C21.2857 155.538 25.012 162.799 25.5853 164.055C26.4082 165.842 29.663 168.18 32.8715 168.262C36.08 168.345 39.7231 164.311 39.7231 164.311C45.3727 158.206 47.4069 152.147 49.8018 142.604C55.3681 120.483 50.7172 105.257 50.7172 105.257C50.7172 105.257 49.9312 100.627 43.8563 100.472C43.8563 100.472 40.7865 100.389 39.3625 101.324C38.2437 102.057 35.4882 105.367 35.4882 105.367L35.5067 105.376Z" fill="white"/>
</mask>
<g mask="url(#mask2_619_2023)">
<path d="M66.0295 210.679C100.888 210.679 129.146 182.663 129.146 148.104C129.146 113.545 100.888 85.5293 66.0295 85.5293C31.1713 85.5293 2.91309 113.545 2.91309 148.104C2.91309 182.663 31.1713 210.679 66.0295 210.679Z" fill="#70CACF"/>
<path d="M66.3901 183.553C93.5372 183.553 115.544 161.735 115.544 134.821C115.544 107.907 93.5372 86.0889 66.3901 86.0889C39.2429 86.0889 17.2358 107.907 17.2358 134.821C17.2358 161.735 39.2429 183.553 66.3901 183.553Z" fill="#70CACF"/>
<path d="M66.9911 161.222C94.1383 161.222 116.145 139.404 116.145 112.49C116.145 85.5755 94.1383 63.7573 66.9911 63.7573C39.844 63.7573 17.8369 85.5755 17.8369 112.49C17.8369 139.404 39.844 161.222 66.9911 161.222Z" fill="#70CACF"/>
<path d="M67.786 131.521C94.9332 131.521 116.94 109.703 116.94 82.7885C116.94 55.8744 94.9332 34.0562 67.786 34.0562C40.6389 34.0562 18.6318 55.8744 18.6318 82.7885C18.6318 109.703 40.6389 131.521 67.786 131.521Z" fill="#70CACF"/>
<path d="M66.0295 210.679C100.888 210.679 129.146 182.663 129.146 148.104C129.146 113.545 100.888 85.5293 66.0295 85.5293C31.1713 85.5293 2.91309 113.545 2.91309 148.104C2.91309 182.663 31.1713 210.679 66.0295 210.679Z" fill="#70CACF"/>
<path d="M66.3901 183.553C93.5372 183.553 115.544 161.735 115.544 134.821C115.544 107.907 93.5372 86.0889 66.3901 86.0889C39.2429 86.0889 17.2358 107.907 17.2358 134.821C17.2358 161.735 39.2429 183.553 66.3901 183.553Z" fill="#70CACF"/>
<path d="M66.9911 161.222C94.1383 161.222 116.145 139.404 116.145 112.49C116.145 85.5755 94.1383 63.7573 66.9911 63.7573C39.844 63.7573 17.8369 85.5755 17.8369 112.49C17.8369 139.404 39.844 161.222 66.9911 161.222Z" fill="#70CACF"/>
<path d="M67.786 131.521C94.9332 131.521 116.94 109.703 116.94 82.7885C116.94 55.8744 94.9332 34.0562 67.786 34.0562C40.6389 34.0562 18.6318 55.8744 18.6318 82.7885C18.6318 109.703 40.6389 131.521 67.786 131.521Z" fill="#70CACF"/>
<path d="M66.0295 210.679C100.888 210.679 129.146 182.663 129.146 148.104C129.146 113.545 100.888 85.5293 66.0295 85.5293C31.1713 85.5293 2.91309 113.545 2.91309 148.104C2.91309 182.663 31.1713 210.679 66.0295 210.679Z" fill="#70CACF"/>
<path d="M66.3901 183.553C93.5372 183.553 115.544 161.735 115.544 134.821C115.544 107.907 93.5372 86.0889 66.3901 86.0889C39.2429 86.0889 17.2358 107.907 17.2358 134.821C17.2358 161.735 39.2429 183.553 66.3901 183.553Z" fill="#70CACF"/>
<path d="M66.9911 161.222C94.1383 161.222 116.145 139.404 116.145 112.49C116.145 85.5755 94.1383 63.7573 66.9911 63.7573C39.844 63.7573 17.8369 85.5755 17.8369 112.49C17.8369 139.404 39.844 161.222 66.9911 161.222Z" fill="#70CACF"/>
<path d="M67.786 131.521C94.9332 131.521 116.94 109.703 116.94 82.7885C116.94 55.8744 94.9332 34.0562 67.786 34.0562C40.6389 34.0562 18.6318 55.8744 18.6318 82.7885C18.6318 109.703 40.6389 131.521 67.786 131.521Z" fill="#70CACF"/>
</g>
<path d="M50.7356 105.275C53.9348 116.597 53.417 128.697 51.1054 140.147C49.2839 148.755 46.9353 157.766 40.8049 164.44C38.7152 166.713 36.0892 169.143 32.7697 169.179C29.5242 169.225 26.5376 167.043 24.8085 164.467C21.415 159.306 21.8496 152.779 21.9606 146.912C22.3304 138.103 23.8931 129.302 26.9906 121.052C28.9047 115.524 31.4197 110.116 35.0351 105.477C33.4354 107.934 31.9837 110.473 30.8002 113.132C27.5547 121.171 24.9379 129.669 24.1612 138.304C23.5787 146.738 20.7123 166.383 32.8252 167.364C35.3494 167.346 37.7905 165.127 39.4826 163.294C45.5206 156.886 47.675 148.15 49.7277 139.845C52.326 128.578 53.1581 116.652 50.7356 105.275Z" fill="white"/>
<path d="M57.6183 62.7773C62.2765 62.2543 65.2506 54.8078 64.2612 46.1449C63.2718 37.482 58.6936 30.8833 54.0354 31.4062C49.3773 31.9291 46.4031 39.3757 47.3925 48.0385C48.3819 56.7014 52.9601 63.3002 57.6183 62.7773Z" fill="white"/>
<path d="M49.1466 63.3494C52.866 62.9319 55.7177 61.1619 55.516 59.3961C55.3144 57.6304 52.1357 56.5374 48.4163 56.9549C44.6968 57.3725 41.8451 59.1424 42.0468 60.9082C42.2485 62.6739 45.4271 63.7669 49.1466 63.3494Z" fill="#FF9CD5"/>
<path d="M76.0324 55.2911C79.4533 55.0956 81.8788 48.9589 81.4499 41.5844C81.021 34.2099 77.9001 28.3903 74.4792 28.5859C71.0583 28.7814 68.6328 34.9181 69.0617 42.2926C69.4906 49.667 72.6115 55.4867 76.0324 55.2911Z" fill="white"/>
<path d="M82.2134 54.6204C84.946 54.4642 87.0902 53.1165 87.0026 51.6103C86.915 50.1041 84.6288 49.0097 81.8961 49.1659C79.1635 49.3221 77.0193 50.6698 77.1069 52.176C77.1945 53.6822 79.4807 54.7766 82.2134 54.6204Z" fill="#FF9CD5"/>
</g>
<defs>
<clipPath id="clip0_619_2023">
<rect width="87" height="210" fill="white"/>
</clipPath>
</defs>
</svg>
